<svg width="489" height="494" viewBox="0 0 489 494" fill="none" xmlns="http://www.w3.org/2000/svg">
<path fill-rule="evenodd" clip-rule="evenodd" d="M283.855 0.97922L287.121 7.41615L302.039 36.8141L327.141 13.9143L330.882 10.5019L332.752 15.2069L348.236 54.1497L388.011 48.5344L394.009 47.6875L391.747 53.3071L377.7 88.1968L417.956 99.6332L420.845 100.454L420.473 103.434L415.303 144.797L455.851 161.771L459.193 163.17L457.68 166.461L442.435 199.642L469.862 206.608L475.229 207.971L471.694 212.234L456.747 230.259L484.454 257.504L488.397 261.382L483.205 263.286L457.681 272.645L484.774 307.866L488.421 312.607L482.501 313.464L448.349 318.407L455.392 346.138L456.5 350.5H452H404V403V408.554L398.99 406.157L368.284 391.472L357.379 431.911L355.878 437.477L351.633 433.578L333 416.466V431V435.64L328.538 434.365L316.074 430.804L318.977 456.101L319.64 461.874L314.227 459.76L264.35 440.285L245.912 467.941L243.795 471.118L240.814 468.733L205.987 440.872L164.685 490.246L161.81 493.682L159.171 490.061L136.134 458.441L116.027 479.422L112.092 483.527L110.2 478.165L93.4538 430.718L60.4052 445.206L55.3984 447.4L55.5006 441.935L56.434 392H19H13.299L15.8789 386.916L30.6508 357.807L6.02973 354.468L1.55488 353.862L3.25868 349.679L24.0131 298.737L4.99245 289.659L0.290727 287.415L4.14565 283.91L34.5752 256.247L6.89267 225.335L4.26033 222.395L7.49288 220.133L33.8868 201.657L12.1586 182.102L7.65582 178.049L13.4157 176.172L54.1102 162.912L36.3465 126.018L33.9303 121H39.5H82.3999L86.5256 87.0774L87.0053 83.133L90.8576 84.1067L132.249 94.5681L135.506 37.7995L135.843 31.9211L140.846 35.0263L180.6 59.701L189.685 32.8772L190.909 29.2647L194.403 30.7934L223.26 43.4184L239.822 7.5333L242.261 2.25002L245.785 6.8801L267.764 35.755L280.824 7.53029L283.855 0.97922ZM243.739 15.75L228.178 49.4667L226.74 52.5816L223.597 51.2066L195.091 38.7353L185.815 66.1228L184.4 70.299L180.654 67.9737L142.157 44.0789L138.994 99.2005L138.751 103.432L134.642 102.393L92.9947 91.867L88.9744 124.923L88.6001 128H85.5H45.0698L62.1535 163.482L63.8898 167.088L60.0843 168.328L21.3442 180.951L41.8414 199.398L45.1132 202.343L41.5071 204.867L14.7397 223.605L42.1073 254.165L44.4248 256.753L41.8544 259.09L12.7093 285.585L30.0076 293.841L32.9869 295.263L31.7413 298.321L11.4451 348.138L36.4703 351.532L41.3492 352.193L39.1211 356.584L24.701 385H60H63.566L63.4994 388.565L62.6016 436.6L94.0948 422.794L97.5462 421.281L98.8005 424.835L114.908 470.473L133.973 450.578L136.866 447.559L139.329 450.939L162.19 482.318L202.815 433.754L205.013 431.128L207.686 433.267L242.205 460.882L260.088 434.059L261.65 431.715L264.273 432.74L311.36 451.126L308.523 426.399L307.926 421.196L312.962 422.635L326 426.36V408.5V400.534L331.867 405.922L352.122 424.523L362.621 385.589L363.716 381.528L367.51 383.343L397 397.446V347V343.5H400.5H447.5L440.608 316.362L439.651 312.593L443.499 312.036L475.579 307.393L449.226 273.134L446.319 269.355L450.795 267.714L475.603 258.618L449.546 232.996L447.253 230.741L449.306 228.266L462.771 212.029L436.638 205.392L432.565 204.358L434.32 200.539L449.807 166.83L410.149 150.229L407.697 149.203L408.027 146.566L413.155 105.546L372.044 93.8668L368.3 92.8032L369.753 89.1929L382.991 56.3125L346.489 61.4656L343.764 61.8503L342.748 59.2931L328.118 22.4981L303.359 45.0857L299.961 48.1859L297.879 44.0839L284.145 17.0208L271.676 43.9697L269.236 49.245L265.715 44.6199L243.739 15.75ZM197.664 151.496L197.664 151.497L197.663 151.498L197.663 151.499L195.831 155.373L192.406 152.805L192.405 152.804L192.403 152.803L192.402 152.801L192.4 152.8L192.392 152.794C192.376 152.783 192.347 152.761 192.305 152.731C192.22 152.671 192.084 152.575 191.896 152.449C191.522 152.196 190.946 151.821 190.182 151.364C188.652 150.451 186.373 149.214 183.446 147.972C177.586 145.486 169.179 143 159 143C148.759 143 133.34 145.886 120.597 154.183C108.038 162.361 98.0001 175.814 98 197.5C97.9999 219.675 106.335 240.702 114.825 256.329C119.055 264.115 123.286 270.491 126.455 274.915C128.038 277.125 129.353 278.844 130.267 280.004C130.723 280.583 131.079 281.023 131.318 281.313L131.387 281.397L131.439 281.46C131.5 281.534 131.549 281.593 131.585 281.637L131.649 281.713L131.663 281.729L131.664 281.73L131.665 281.731L133.977 284.446L131.223 286.703L131.222 286.704L131.221 286.705L131.219 286.707L131.216 286.709L131.17 286.747C131.126 286.785 131.054 286.846 130.957 286.93C130.763 287.099 130.467 287.362 130.087 287.716C129.326 288.423 128.227 289.493 126.922 290.906C124.309 293.735 120.89 297.916 117.696 303.288C111.316 314.022 105.887 329.409 109.44 348.355C112.865 366.624 125.126 374.219 136.962 377.368C142.93 378.955 148.723 379.376 153.051 379.391C155.207 379.398 156.978 379.305 158.198 379.211C158.808 379.165 159.279 379.118 159.59 379.084L159.658 379.076C159.711 379.071 159.758 379.065 159.799 379.06L159.857 379.053L159.933 379.044C159.97 379.04 159.995 379.036 160.01 379.034L160.023 379.033C160.022 379.033 160.02 379.033 160.5 382.5C160.979 385.967 160.978 385.967 160.976 385.968L160.971 385.968L160.959 385.97L160.922 385.975C160.891 385.979 160.849 385.984 160.796 385.991C160.691 386.004 160.541 386.022 160.351 386.043C159.97 386.084 159.423 386.138 158.733 386.191C157.354 386.297 155.395 386.399 153.027 386.391C148.308 386.374 141.882 385.92 135.163 384.132C121.624 380.531 106.634 371.376 102.56 349.645C98.6123 328.591 104.684 311.478 111.679 299.712C115.173 293.834 118.909 289.265 121.78 286.156C122.691 285.171 123.517 284.329 124.223 283.638C123.305 282.456 122.127 280.894 120.764 278.991C117.464 274.384 113.07 267.76 108.674 259.671C99.9148 243.548 90.9999 221.325 91 197.5C91.0001 173.186 102.463 157.638 116.778 148.317C130.91 139.114 147.741 136 159 136C170.321 136 179.664 138.764 186.179 141.528C189.098 142.766 191.459 144.008 193.189 145.012C194.02 143.545 195.134 141.677 196.537 139.525C199.984 134.242 205.202 127.22 212.298 120.252C226.498 106.311 248.377 92.4592 278.621 93.5021C308.526 94.5333 329.95 105.86 344.31 122.223C358.597 138.503 365.676 159.514 367.486 179.687C369.257 199.425 368.508 214.082 366.961 224.394C365.724 232.644 363.954 238.258 362.466 241.473L362.544 241.524L362.65 241.592L362.747 241.654C362.797 241.687 362.849 241.719 362.902 241.753C363.275 241.989 363.701 242.25 364.172 242.538C366.104 243.722 368.786 245.364 371.558 247.577C378.656 253.241 386.577 262.758 388.967 280.02C391.413 297.684 383.349 311.553 375.038 320.78C370.87 325.407 366.569 328.954 363.314 331.344C361.683 332.542 360.305 333.457 359.324 334.077C358.834 334.388 358.442 334.625 358.167 334.789L358.066 334.848L357.957 334.912C357.913 334.937 357.876 334.959 357.843 334.978C357.804 335 357.774 335.018 357.751 335.031L357.723 335.047L357.714 335.052L357.71 335.054C357.709 335.055 357.707 335.055 356 332C354.293 328.945 354.292 328.945 354.291 328.946L354.298 328.941L354.352 328.911C354.381 328.894 354.421 328.871 354.471 328.842C354.507 328.821 354.548 328.796 354.595 328.769C354.815 328.638 355.15 328.435 355.58 328.163C356.441 327.618 357.684 326.794 359.171 325.702C362.15 323.514 366.067 320.28 369.837 316.095C377.401 307.697 384.087 295.816 382.033 280.98C379.923 265.742 373.094 257.759 367.192 253.048C364.796 251.136 362.584 249.779 360.667 248.602C360.142 248.28 359.639 247.972 359.16 247.669C358.183 247.051 356.966 246.252 356.131 245.304C355.683 244.795 355.112 243.991 354.904 242.895C354.672 241.677 354.969 240.546 355.532 239.645C356.414 238.234 358.569 233.154 360.039 223.356C361.492 213.668 362.243 199.575 360.514 180.313C358.802 161.237 352.131 141.748 339.048 126.84C326.039 112.015 306.474 101.467 278.379 100.498C250.623 99.5407 230.502 112.189 217.202 125.247C210.548 131.78 205.641 138.383 202.4 143.35C200.782 145.83 199.584 147.895 198.798 149.326C198.405 150.042 198.114 150.598 197.926 150.969L197.896 151.029L197.851 151.117L197.814 151.191L197.795 151.23L197.744 151.332L197.719 151.382C197.697 151.427 197.682 151.459 197.673 151.478L197.664 151.496ZM315.41 364.683C301.534 373.722 281.712 383.842 258.1 387.948C234.746 392.01 212.081 392.004 195.29 390.994C186.885 390.488 179.928 389.73 175.063 389.096C172.631 388.779 170.719 388.493 169.41 388.285C168.755 388.181 168.251 388.096 167.907 388.037C167.735 388.008 167.604 387.985 167.513 387.969L167.409 387.95L167.38 387.945L167.371 387.943L167.369 387.943C167.368 387.942 167.367 387.942 168 384.5C168.633 381.058 168.633 381.058 168.632 381.058L168.633 381.058L168.636 381.058L168.655 381.062L168.739 381.077L168.801 381.088C168.875 381.101 168.972 381.118 169.092 381.138C169.408 381.193 169.883 381.272 170.508 381.371C171.757 381.57 173.604 381.846 175.968 382.154C180.697 382.77 187.49 383.512 195.71 384.006C212.169 384.996 234.254 384.99 256.9 381.052C279.288 377.158 298.216 367.528 311.59 358.817C318.266 354.469 323.528 350.368 327.111 347.365C328.901 345.864 330.27 344.638 331.184 343.796C331.641 343.375 331.984 343.049 332.209 342.833C332.257 342.787 332.299 342.746 332.336 342.71C332.386 342.662 332.427 342.622 332.457 342.592L332.514 342.536L332.525 342.525L332.526 342.524C332.526 342.525 332.525 342.525 335 345C337.475 347.475 337.474 347.476 337.473 347.477L337.471 347.479L337.463 347.486L337.44 347.509C337.421 347.529 337.394 347.555 337.359 347.589L337.285 347.661L337.203 347.741C337.161 347.783 337.113 347.828 337.061 347.878C336.802 348.128 336.423 348.487 335.929 348.942C334.941 349.854 333.489 351.152 331.608 352.729C327.847 355.882 322.359 360.156 315.41 364.683ZM217.5 241C214.011 240.717 214.012 240.717 214.012 240.716L214.011 240.719L214.009 240.747C214.007 240.774 214.003 240.818 213.997 240.878C213.986 240.997 213.967 241.179 213.941 241.416C213.889 241.89 213.804 242.58 213.679 243.421C213.427 245.113 213.014 247.373 212.375 249.697C211.729 252.046 210.89 254.315 209.841 256.103C208.766 257.934 207.7 258.874 206.771 259.223L209.229 265.777C212.3 264.626 214.421 262.129 215.878 259.647C217.36 257.122 218.396 254.204 219.125 251.553C219.861 248.877 220.323 246.325 220.602 244.454C220.743 243.514 220.838 242.735 220.899 242.186C220.914 242.05 220.927 241.928 220.938 241.82C220.948 241.723 220.956 241.637 220.963 241.565L220.966 241.539C220.973 241.463 220.978 241.402 220.982 241.359L220.986 241.308L220.988 241.292L220.988 241.287L220.988 241.284C220.988 241.284 220.989 241.283 217.5 241ZM230.293 238.668C230.294 238.669 230.294 238.669 227.071 240.035C223.849 241.401 223.849 241.401 223.849 241.402L223.85 241.404L223.852 241.409L223.858 241.424L223.879 241.471C223.896 241.511 223.92 241.567 223.951 241.637C224.013 241.778 224.103 241.978 224.218 242.23C224.449 242.732 224.784 243.441 225.213 244.289C226.066 245.978 227.308 248.255 228.848 250.564C230.374 252.851 232.275 255.295 234.476 257.225C236.639 259.123 239.438 260.826 242.715 260.953L242.987 253.959C241.996 253.92 240.688 253.363 239.092 251.963C237.533 250.596 236.023 248.705 234.671 246.679C233.334 244.674 232.231 242.658 231.46 241.132C231.076 240.372 230.779 239.744 230.58 239.31C230.481 239.094 230.406 238.927 230.358 238.817L230.328 238.748L230.306 238.697L230.295 238.671L230.293 238.668ZM206 223C206 243.335 189.416 262 170.5 262C150.369 262 132.5 245.601 132.5 226.5C132.5 207.399 150.369 191 170.5 191C190.925 191 206 204.165 206 223ZM213 223C213 246.472 193.972 269 170.5 269C147.028 269 125.5 249.972 125.5 226.5C125.5 203.028 147.028 184 170.5 184C193.972 184 213 199.528 213 223ZM283.5 252.5C313.323 252.5 339 226.823 339 197C339 181.751 333.991 170.057 325.781 162.162C317.539 154.235 305.402 149.5 290 149.5C260.252 149.5 236.5 173.601 236.5 203.5C236.5 218.948 241.138 231.089 248.944 239.315C256.707 247.496 268.257 252.5 283.5 252.5ZM283.5 259.5C317.189 259.5 346 230.689 346 197C346 163.311 323.689 142.5 290 142.5C256.311 142.5 229.5 169.811 229.5 203.5C229.5 237.189 249.811 259.5 283.5 259.5ZM316.27 272.414L312.615 273.238C312.355 273.925 312.027 274.783 311.646 275.766C310.644 278.344 309.268 281.795 307.777 285.255C306.294 288.694 304.66 292.234 303.14 294.949C302.39 296.291 301.596 297.562 300.796 298.542C300.4 299.027 299.911 299.556 299.332 299.991C298.806 300.386 297.819 301 296.5 301C295.473 301 294.63 300.641 294.1 300.359C293.531 300.056 293.014 299.675 292.568 299.304C291.676 298.561 290.756 297.591 289.871 296.563C288.086 294.49 286.112 291.794 284.309 289.185C282.492 286.558 280.794 283.94 279.553 281.985C279.294 281.577 279.054 281.197 278.837 280.851L199.472 298.74C199.18 299.379 198.81 300.185 198.375 301.117C197.255 303.519 195.706 306.765 193.995 310.129C192.289 313.482 190.396 317.005 188.59 319.938C187.687 321.403 186.777 322.77 185.897 323.914C185.061 325.001 184.08 326.116 183.007 326.867C181.116 328.191 179.027 327.96 177.549 327.454C176.095 326.955 174.714 326.041 173.507 325.08C171.059 323.13 168.466 320.284 166.175 317.508C163.853 314.694 161.706 311.784 160.147 309.591C159.716 308.985 159.328 308.431 158.993 307.946L155.383 308.887L153.617 302.113L159.617 300.55L159.674 300.535L159.73 300.522L196.23 292.295L279.73 273.475L309.23 266.825L314.73 265.586L316.27 272.414ZM290.066 285.204C288.605 283.091 287.215 280.971 286.09 279.217L304.392 275.092C303.517 277.304 302.463 279.897 301.348 282.484C299.893 285.861 298.372 289.136 297.031 291.532C296.702 292.121 296.4 292.627 296.128 293.05C295.842 292.75 295.523 292.399 295.176 291.996C293.633 290.204 291.825 287.748 290.066 285.204ZM166.334 306.209L190.839 300.686C189.934 302.583 188.879 304.746 187.755 306.955C186.086 310.237 184.291 313.569 182.629 316.268C181.797 317.619 181.028 318.763 180.349 319.645C179.993 320.108 179.702 320.446 179.476 320.684C179.102 320.497 178.565 320.159 177.868 319.604C176.004 318.12 173.784 315.73 171.575 313.053C169.621 310.686 167.778 308.219 166.334 306.209ZM320.986 319.733L301.293 324.212C302.035 321.382 303.016 317.791 304.1 314.209C305.277 310.319 306.545 306.546 307.731 303.788C308.021 303.113 308.291 302.536 308.537 302.054C308.938 302.472 309.391 302.982 309.891 303.581C311.695 305.744 313.803 308.696 315.844 311.736C317.776 314.611 319.601 317.495 320.986 319.733ZM307.175 300.84L307.182 300.844C307.158 300.832 307.156 300.829 307.175 300.84ZM297.276 332.304L327.246 325.488L334.716 323.926L333.284 317.074L328.218 318.134C327.907 317.623 327.549 317.037 327.15 316.391C325.714 314.065 323.751 310.954 321.656 307.833C319.572 304.73 317.305 301.54 315.266 299.096C314.254 297.884 313.219 296.758 312.229 295.905C311.734 295.479 311.171 295.05 310.559 294.712C309.99 294.398 309.092 294 308 294C306.592 294 305.551 294.678 304.965 295.169C304.349 295.684 303.856 296.307 303.47 296.871C302.691 298.009 301.964 299.479 301.3 301.022C299.955 304.149 298.598 308.224 297.4 312.182C296.195 316.165 295.119 320.137 294.347 323.105C294.06 324.209 293.814 325.176 293.618 325.957L211.507 344.63C211.106 344.188 210.631 343.666 210.097 343.085C208.404 341.243 206.1 338.789 203.676 336.361C201.27 333.951 198.672 331.493 196.403 329.685C195.281 328.791 194.127 327.965 193.043 327.387C192.502 327.099 191.869 326.814 191.189 326.637C190.546 326.47 189.539 326.316 188.443 326.663C187.519 326.956 186.828 327.509 186.411 327.886C185.946 328.308 185.516 328.797 185.131 329.282C184.358 330.256 183.551 331.487 182.757 332.811C181.158 335.476 179.404 338.86 177.796 342.134C176.18 345.424 174.68 348.671 173.585 351.091C173.159 352.032 172.793 352.851 172.505 353.5L167.724 354.587L169.276 361.413L175.776 359.935L211.05 351.913L297.276 332.304ZM198.723 341.307C200.489 343.076 202.199 344.87 203.644 346.418L181.07 351.552C181.961 349.622 182.995 347.427 184.079 345.219C185.659 342.002 187.311 338.825 188.759 336.413C189.377 335.382 189.923 334.552 190.378 333.94C190.834 334.237 191.39 334.641 192.042 335.16C193.996 336.717 196.373 338.953 198.723 341.307ZM191.148 333.043C191.148 333.043 191.139 333.051 191.121 333.065C191.139 333.049 191.148 333.042 191.148 333.043Z" fill="black"/>
</svg>
